<mxfile host="65bd71144e">
    <diagram id="Omcn7C5vce5QtgtZiRUc" name="Page-1">
        <mxGraphModel dx="1149" dy="393" grid="1" gridSize="10" guides="1" tooltips="1" connect="1" arrows="1" fold="1" page="1" pageScale="1" pageWidth="850" pageHeight="1100" math="0" shadow="0">
            <root>
                <mxCell id="0"/>
                <mxCell id="1" parent="0"/>
                <mxCell id="2" value="" style="verticalLabelPosition=bottom;verticalAlign=top;html=1;shape=mxgraph.infographic.shadedTriangle;fillColor=#10739E;strokeColor=none;" vertex="1" parent="1">
                    <mxGeometry x="78" y="40" width="695" height="480" as="geometry"/>
                </mxCell>
                <mxCell id="4" value="&lt;b&gt;&lt;font style=&quot;color: rgb(255, 255, 255);&quot;&gt;Duration&lt;/font&gt;&lt;/b&gt;" style="text;html=1;align=center;verticalAlign=middle;whiteSpace=wrap;rounded=0;fontColor=#FFFFFF;labelBackgroundColor=none;fontSize=23;" vertex="1" parent="1">
                    <mxGeometry x="150" y="220" width="60" height="30" as="geometry"/>
                </mxCell>
                <mxCell id="9" value="&lt;b&gt;&lt;font style=&quot;color: rgb(255, 255, 255);&quot;&gt;VUs&lt;/font&gt;&lt;/b&gt;" style="text;html=1;align=center;verticalAlign=middle;whiteSpace=wrap;rounded=0;fontColor=#FFFFFF;labelBackgroundColor=none;fontSize=23;" vertex="1" parent="1">
                    <mxGeometry x="620" y="220" width="60" height="30" as="geometry"/>
                </mxCell>
                <mxCell id="10" value="Iterations" style="text;html=1;align=center;verticalAlign=middle;whiteSpace=wrap;rounded=0;fontColor=#FFFFFF;labelBackgroundColor=none;fontSize=23;" vertex="1" parent="1">
                    <mxGeometry x="380" y="535" width="60" height="30" as="geometry"/>
                </mxCell>
            </root>
        </mxGraphModel>
    </diagram>
</mxfile>